<?xml version="1.0" standalone="no"?><svg xmlns:xlink="http://www.w3.org/1999/xlink" xmlns="http://www.w3.org/2000/svg" viewBox="0 0 1280 995.5665133990543" preserveAspectRatio="xMaxYMax slice"><g transform="scale(1.671535448957445)"><rect x="0" y="0" width="765.7714285714286" height="595.6" fill="#ffffff"/><rect x="616.87" y="106.36" width="42.54" height="42.54" fill="#f4976a"/><polygon points="616.87,106.36 659.41,106.36 659.41,148.9" fill="#262626"/><rect x="701.96" y="106.36" width="42.54" height="42.54" fill="#282828"/><polygon points="701.96,106.36 744.5,148.9 701.96,148.9" fill="#c5c5c5"/><rect x="276.53" y="191.44" width="42.54" height="42.54" fill="#7f7f7f"/><polygon points="276.53,191.44 319.07,233.98 276.53,233.98" fill="#f6aa86"/><rect x="361.61" y="191.44" width="42.54" height="42.54" fill="#f4986c"/><polygon points="404.15000000000003,191.44 404.15000000000003,233.98 361.61,233.98" fill="#f5a57e"/><rect x="531.79" y="191.44" width="42.54" height="42.54" fill="#a8a8a8"/><polygon points="531.79,191.44 574.3299999999999,233.98 531.79,233.98" fill="#f5a37b"/><rect x="616.87" y="191.44" width="42.54" height="42.54" fill="#fbd7c6"/><polygon points="616.87,191.44 659.41,233.98 616.87,233.98" fill="#f5a47d"/><rect x="701.96" y="191.44" width="42.54" height="42.54" fill="#cccccc"/><polygon points="701.96,191.44 744.5,191.44 701.96,233.98" fill="#d1d1d1"/><rect x="191.44" y="276.53" width="42.54" height="42.54" fill="#6b6b6b"/><polygon points="191.44,276.53 233.98,276.53 233.98,319.07" fill="#bababa"/><rect x="361.61" y="276.53" width="42.54" height="42.54" fill="#d5d5d5"/><polygon points="361.61,276.53 404.15000000000003,276.53 361.61,319.07" fill="#c8c8c8"/><rect x="701.96" y="276.53" width="42.54" height="42.54" fill="#c6c6c6"/><polygon points="744.5,276.53 744.5,319.07 701.96,319.07" fill="#d1d1d1"/><rect x="21.27" y="361.61" width="42.54" height="42.54" fill="#c2c2c2"/><polygon points="63.81,361.61 63.81,404.15000000000003 21.27,404.15000000000003" fill="#3c3c3c"/><rect x="276.53" y="361.61" width="42.54" height="42.54" fill="#f39568"/><polygon points="319.07,361.61 319.07,404.15000000000003 276.53,404.15000000000003" fill="#fad1bd"/><rect x="361.61" y="361.61" width="42.54" height="42.54" fill="#757575"/><polygon points="361.61,361.61 404.15000000000003,361.61 404.15000000000003,404.15000000000003" fill="#ee6726"/><rect x="616.87" y="361.61" width="42.54" height="42.54" fill="#f1814b"/><polygon points="616.87,361.61 659.41,361.61 659.41,404.15000000000003" fill="#151515"/><rect x="701.96" y="361.61" width="42.54" height="42.54" fill="#f9c4aa"/><polygon points="701.96,361.61 744.5,361.61 701.96,404.15000000000003" fill="#787878"/><rect x="21.27" y="446.7" width="42.54" height="42.54" fill="#fef2ed"/><polygon points="21.27,446.7 63.81,446.7 63.81,489.24" fill="#181818"/><rect x="106.36" y="446.7" width="42.54" height="42.54" fill="#fef4ef"/><polygon points="148.9,446.7 148.9,489.24 106.36,489.24" fill="#898989"/><rect x="191.44" y="446.7" width="42.54" height="42.54" fill="#f5a47d"/><polygon points="191.44,446.7 233.98,489.24 191.44,489.24" fill="#676767"/><rect x="276.53" y="446.7" width="42.54" height="42.54" fill="#242424"/><polygon points="276.53,446.7 319.07,446.7 319.07,489.24" fill="#606060"/><rect x="361.61" y="446.7" width="42.54" height="42.54" fill="#494949"/><polygon points="361.61,446.7 404.15000000000003,446.7 404.15000000000003,489.24" fill="#121212"/><rect x="446.7" y="446.7" width="42.54" height="42.54" fill="#f39365"/><polygon points="489.24,446.7 489.24,489.24 446.7,489.24" fill="#f2f2f2"/><rect x="531.79" y="446.7" width="42.54" height="42.54" fill="#f49b70"/><polygon points="531.79,446.7 574.3299999999999,489.24 531.79,489.24" fill="#f0783e"/><rect x="616.87" y="446.7" width="42.54" height="42.54" fill="#888888"/><polygon points="616.87,446.7 659.41,446.7 616.87,489.24" fill="#878787"/><rect x="701.96" y="446.7" width="42.54" height="42.54" fill="#fef9f6"/><polygon points="701.96,446.7 744.5,446.7 701.96,489.24" fill="#fad4c2"/><rect x="21.27" y="531.79" width="42.54" height="42.54" fill="#f8bfa4"/><polygon points="63.81,531.79 63.81,574.3299999999999 21.27,574.3299999999999" fill="#878787"/><rect x="106.36" y="531.79" width="42.54" height="42.54" fill="#c7c7c7"/><polygon points="106.36,531.79 148.9,531.79 148.9,574.3299999999999" fill="#f28550"/><rect x="191.44" y="531.79" width="42.54" height="42.54" fill="#fbd6c5"/><polygon points="191.44,531.79 233.98,531.79 191.44,574.3299999999999" fill="#f28c5b"/><rect x="276.53" y="531.79" width="42.54" height="42.54" fill="#fef5f0"/><polygon points="276.53,531.79 319.07,531.79 276.53,574.3299999999999" fill="#f9c9b2"/><rect x="361.61" y="531.79" width="42.54" height="42.54" fill="#444444"/><polygon points="404.15000000000003,531.79 404.15000000000003,574.3299999999999 361.61,574.3299999999999" fill="#fad6c4"/><rect x="446.7" y="531.79" width="42.54" height="42.54" fill="#f7b596"/><polygon points="446.7,531.79 489.24,531.79 446.7,574.3299999999999" fill="#a0a0a0"/><rect x="531.79" y="531.79" width="42.54" height="42.54" fill="#fef7f3"/><polygon points="531.79,531.79 574.3299999999999,531.79 574.3299999999999,574.3299999999999" fill="#ffffff"/><rect x="616.87" y="531.79" width="42.54" height="42.54" fill="#c6c6c6"/><polygon points="659.41,531.79 659.41,574.3299999999999 616.87,574.3299999999999" fill="#2f2f2f"/><rect x="701.96" y="531.79" width="42.54" height="42.54" fill="#f4996d"/><polygon points="701.96,531.79 744.5,531.79 701.96,574.3299999999999" fill="#f9cab4"/></g></svg>