<?xml version="1.0" standalone="no"?><svg xmlns:xlink="http://www.w3.org/1999/xlink" xmlns="http://www.w3.org/2000/svg" viewBox="0 0 1280 995.5665133990543" preserveAspectRatio="xMaxYMax slice"><g transform="scale(1.671535448957445)"><rect x="0" y="0" width="765.7714285714286" height="595.6" fill="#ffffff"/><rect x="34.03" y="119.12" width="17.02" height="17.02" fill="#fbd6c5"/><polygon points="51.05,119.12 51.05,136.14000000000001 34.03,136.14000000000001" fill="#f8c2a7"/><rect x="374.38" y="119.12" width="17.02" height="17.02" fill="#f6a984"/><polygon points="374.38,119.12 391.4,119.12 374.38,136.14000000000001" fill="#f49e74"/><rect x="629.63" y="119.12" width="17.02" height="17.02" fill="#fad3c1"/><polygon points="629.63,119.12 646.65,136.14000000000001 629.63,136.14000000000001" fill="#fffbf9"/><rect x="289.29" y="204.21" width="17.02" height="17.02" fill="#fdede5"/><polygon points="289.29,204.21 306.31,221.23000000000002 289.29,221.23000000000002" fill="#f8bda1"/><rect x="629.63" y="204.21" width="17.02" height="17.02" fill="#fdeae0"/><polygon points="629.63,204.21 646.65,221.23000000000002 629.63,221.23000000000002" fill="#fad4c2"/><rect x="34.03" y="289.29" width="17.02" height="17.02" fill="#f6af8d"/><polygon points="34.03,289.29 51.05,306.31 34.03,306.31" fill="#fef2ed"/><rect x="629.63" y="289.29" width="17.02" height="17.02" fill="#f38f5f"/><polygon points="646.65,289.29 646.65,306.31 629.63,306.31" fill="#ef6c2c"/><rect x="714.72" y="289.29" width="17.02" height="17.02" fill="#faceb9"/><polygon points="714.72,289.29 731.74,306.31 714.72,306.31" fill="#f59f76"/><rect x="34.03" y="374.38" width="17.02" height="17.02" fill="#f6ac88"/><polygon points="34.03,374.38 51.05,391.4 34.03,391.4" fill="#fbd7c6"/><rect x="374.38" y="374.38" width="17.02" height="17.02" fill="#f39365"/><polygon points="391.4,374.38 391.4,391.4 374.38,391.4" fill="#fdeae1"/><rect x="544.55" y="374.38" width="17.02" height="17.02" fill="#fdeae1"/><polygon points="561.5699999999999,374.38 561.5699999999999,391.4 544.55,391.4" fill="#ee6725"/><rect x="629.63" y="374.38" width="17.02" height="17.02" fill="#fbdecf"/><polygon points="629.63,374.38 646.65,391.4 629.63,391.4" fill="#f6a984"/><rect x="34.03" y="459.46" width="17.02" height="17.02" fill="#f39364"/><polygon points="34.03,459.46 51.05,476.47999999999996 34.03,476.47999999999996" fill="#fce4d8"/><rect x="119.12" y="459.46" width="17.02" height="17.02" fill="#fef8f5"/><polygon points="119.12,459.46 136.14000000000001,459.46 136.14000000000001,476.47999999999996" fill="#fffcfa"/><rect x="204.21" y="459.46" width="17.02" height="17.02" fill="#f39365"/><polygon points="221.23000000000002,459.46 221.23000000000002,476.47999999999996 204.21,476.47999999999996" fill="#fffbf9"/><rect x="289.29" y="459.46" width="17.02" height="17.02" fill="#f39060"/><polygon points="289.29,459.46 306.31,476.47999999999996 289.29,476.47999999999996" fill="#f1834d"/><rect x="374.38" y="459.46" width="17.02" height="17.02" fill="#fbdccd"/><polygon points="374.38,459.46 391.4,459.46 391.4,476.47999999999996" fill="#fffdfc"/><rect x="459.46" y="459.46" width="17.02" height="17.02" fill="#fbdbcb"/><polygon points="476.47999999999996,459.46 476.47999999999996,476.47999999999996 459.46,476.47999999999996" fill="#fad2bf"/><rect x="544.55" y="459.46" width="17.02" height="17.02" fill="#f7b494"/><polygon points="544.55,459.46 561.5699999999999,459.46 544.55,476.47999999999996" fill="#f5a782"/><rect x="629.63" y="459.46" width="17.02" height="17.02" fill="#f6ab87"/><polygon points="629.63,459.46 646.65,459.46 646.65,476.47999999999996" fill="#f17b42"/><rect x="714.72" y="459.46" width="17.02" height="17.02" fill="#fffbf9"/><polygon points="714.72,459.46 731.74,459.46 714.72,476.47999999999996" fill="#f8c0a5"/><rect x="34.03" y="544.55" width="17.02" height="17.02" fill="#f8bea3"/><polygon points="34.03,544.55 51.05,544.55 51.05,561.5699999999999" fill="#fce1d4"/><rect x="119.12" y="544.55" width="17.02" height="17.02" fill="#f4986c"/><polygon points="119.12,544.55 136.14000000000001,544.55 119.12,561.5699999999999" fill="#fde8de"/><rect x="204.21" y="544.55" width="17.02" height="17.02" fill="#f5a57e"/><polygon points="204.21,544.55 221.23000000000002,544.55 221.23000000000002,561.5699999999999" fill="#fce0d3"/><rect x="289.29" y="544.55" width="17.02" height="17.02" fill="#faceb9"/><polygon points="306.31,544.55 306.31,561.5699999999999 289.29,561.5699999999999" fill="#f9c5ad"/><rect x="374.38" y="544.55" width="17.02" height="17.02" fill="#f39364"/><polygon points="391.4,544.55 391.4,561.5699999999999 374.38,561.5699999999999" fill="#ee621f"/><rect x="459.46" y="544.55" width="17.02" height="17.02" fill="#f0793f"/><polygon points="459.46,544.55 476.47999999999996,544.55 459.46,561.5699999999999" fill="#fef9f6"/><rect x="544.55" y="544.55" width="17.02" height="17.02" fill="#f38f5f"/><polygon points="561.5699999999999,544.55 561.5699999999999,561.5699999999999 544.55,561.5699999999999" fill="#f7ba9c"/><rect x="629.63" y="544.55" width="17.02" height="17.02" fill="#f8c2a8"/><polygon points="629.63,544.55 646.65,544.55 629.63,561.5699999999999" fill="#f6ae8b"/><rect x="714.72" y="544.55" width="17.02" height="17.02" fill="#f6ad89"/><polygon points="731.74,544.55 731.74,561.5699999999999 714.72,561.5699999999999" fill="#ef6d2e"/></g></svg>