<?xml version="1.0" standalone="no"?><svg xmlns:xlink="http://www.w3.org/1999/xlink" xmlns="http://www.w3.org/2000/svg" viewBox="0 0 1280 995.5665133990543" preserveAspectRatio="xMaxYMax slice"><g transform="scale(1.671535448957445)"><rect x="0" y="0" width="765.7714285714286" height="595.6" fill="#ffffff"/><rect x="276.53" y="106.36" width="42.54" height="42.54" fill="#ffffff"/><polygon points="276.53,106.36 319.07,106.36 319.07,148.9" fill="#ffffff"/><rect x="446.7" y="106.36" width="42.54" height="42.54" fill="#ffffff"/><polygon points="489.24,106.36 489.24,148.9 446.7,148.9" fill="#fbdaca"/><rect x="616.87" y="106.36" width="42.54" height="42.54" fill="#f8c3a9"/><polygon points="659.41,106.36 659.41,148.9 616.87,148.9" fill="#ffffff"/><rect x="106.36" y="191.44" width="42.54" height="42.54" fill="#ffffff"/><polygon points="106.36,191.44 148.9,233.98 106.36,233.98" fill="#f28855"/><rect x="446.7" y="191.44" width="42.54" height="42.54" fill="#ef6928"/><polygon points="446.7,191.44 489.24,191.44 489.24,233.98" fill="#fefaf7"/><rect x="701.96" y="191.44" width="42.54" height="42.54" fill="#ffffff"/><polygon points="701.96,191.44 744.5,191.44 744.5,233.98" fill="#f7ba9c"/><rect x="21.27" y="276.53" width="42.54" height="42.54" fill="#f49e74"/><polygon points="21.27,276.53 63.81,276.53 63.81,319.07" fill="#f6ad8a"/><rect x="191.44" y="276.53" width="42.54" height="42.54" fill="#f5a680"/><polygon points="233.98,276.53 233.98,319.07 191.44,319.07" fill="#ffffff"/><rect x="276.53" y="276.53" width="42.54" height="42.54" fill="#ffffff"/><polygon points="319.07,276.53 319.07,319.07 276.53,319.07" fill="#f6ae8b"/><rect x="446.7" y="276.53" width="42.54" height="42.54" fill="#f1804a"/><polygon points="489.24,276.53 489.24,319.07 446.7,319.07" fill="#ffffff"/><rect x="276.53" y="361.61" width="42.54" height="42.54" fill="#ffffff"/><polygon points="276.53,361.61 319.07,361.61 319.07,404.15000000000003" fill="#ffffff"/><rect x="361.61" y="361.61" width="42.54" height="42.54" fill="#fffbf9"/><polygon points="404.15000000000003,361.61 404.15000000000003,404.15000000000003 361.61,404.15000000000003" fill="#f0793f"/><rect x="446.7" y="361.61" width="42.54" height="42.54" fill="#ffffff"/><polygon points="446.7,361.61 489.24,361.61 489.24,404.15000000000003" fill="#ffffff"/><rect x="701.96" y="361.61" width="42.54" height="42.54" fill="#ffffff"/><polygon points="744.5,361.61 744.5,404.15000000000003 701.96,404.15000000000003" fill="#ffffff"/><rect x="191.44" y="446.7" width="42.54" height="42.54" fill="#fce3d6"/><polygon points="191.44,446.7 233.98,489.24 191.44,489.24" fill="#f39162"/><rect x="276.53" y="446.7" width="42.54" height="42.54" fill="#f18049"/><polygon points="276.53,446.7 319.07,489.24 276.53,489.24" fill="#ffffff"/><rect x="361.61" y="446.7" width="42.54" height="42.54" fill="#ffffff"/><polygon points="404.15000000000003,446.7 404.15000000000003,489.24 361.61,489.24" fill="#ffffff"/><rect x="531.79" y="446.7" width="42.54" height="42.54" fill="#f49e74"/><polygon points="531.79,446.7 574.3299999999999,446.7 574.3299999999999,489.24" fill="#fffdfc"/><rect x="616.87" y="446.7" width="42.54" height="42.54" fill="#f7b797"/><polygon points="659.41,446.7 659.41,489.24 616.87,489.24" fill="#ffffff"/><rect x="701.96" y="446.7" width="42.54" height="42.54" fill="#ef6b2c"/><polygon points="744.5,446.7 744.5,489.24 701.96,489.24" fill="#f49668"/><rect x="21.27" y="531.79" width="42.54" height="42.54" fill="#f07539"/><polygon points="21.27,531.79 63.81,531.79 63.81,574.3299999999999" fill="#f28c5b"/><rect x="106.36" y="531.79" width="42.54" height="42.54" fill="#ed5b14"/><polygon points="106.36,531.79 148.9,574.3299999999999 106.36,574.3299999999999" fill="#ffffff"/><rect x="191.44" y="531.79" width="42.54" height="42.54" fill="#f28551"/><polygon points="191.44,531.79 233.98,574.3299999999999 191.44,574.3299999999999" fill="#ffffff"/><rect x="276.53" y="531.79" width="42.54" height="42.54" fill="#f28956"/><polygon points="276.53,531.79 319.07,531.79 319.07,574.3299999999999" fill="#ffffff"/><rect x="361.61" y="531.79" width="42.54" height="42.54" fill="#fef9f7"/><polygon points="404.15000000000003,531.79 404.15000000000003,574.3299999999999 361.61,574.3299999999999" fill="#f28754"/><rect x="446.7" y="531.79" width="42.54" height="42.54" fill="#ffffff"/><polygon points="446.7,531.79 489.24,531.79 446.7,574.3299999999999" fill="#fffefd"/><rect x="531.79" y="531.79" width="42.54" height="42.54" fill="#f28450"/><polygon points="531.79,531.79 574.3299999999999,574.3299999999999 531.79,574.3299999999999" fill="#ffffff"/><rect x="616.87" y="531.79" width="42.54" height="42.54" fill="#ffffff"/><polygon points="616.87,531.79 659.41,574.3299999999999 616.87,574.3299999999999" fill="#ffffff"/><rect x="701.96" y="531.79" width="42.54" height="42.54" fill="#f8bda1"/><polygon points="701.96,531.79 744.5,531.79 744.5,574.3299999999999" fill="#ef7133"/></g></svg>