<svg xmlns="http://www.w3.org/2000/svg" version="1.1" xmlns:xlink="http://www.w3.org/1999/xlink" xmlns:svgjs="http://svgjs.com/svgjs" width="1440" height="560" preserveAspectRatio="none" viewBox="0 0 1440 560"><g mask="url(&quot;#SvgjsMask1001&quot;)" fill="none"><path d="M1512 560L0 560 L0 305.75Q32.61 266.36, 72 298.96Q142.96 249.92, 192 320.88Q267.51 276.39, 312 351.9Q341.34 309.24, 384 338.57Q456.52 291.09, 504 363.61Q506.39 294, 576 296.4Q628.85 229.25, 696 282.09Q762.57 276.66, 768 343.23Q816.09 319.32, 840 367.41Q894.02 301.43, 960 355.45Q962.11 285.56, 1032 287.67Q1098.63 234.3, 1152 300.92Q1238.48 267.4, 1272 353.88Q1318.94 280.82, 1392 327.77Q1430.61 246.38, 1512 284.99z" fill="#182f5d"></path><path d="M1512 560L0 560 L0 360.04Q70.45 310.49, 120 380.94Q188.41 377.35, 192 445.75Q209.46 343.21, 312 360.66Q354.69 331.35, 384 374.04Q456.52 374.56, 456 447.08Q447.89 366.97, 528 358.85Q617.8 328.65, 648 418.45Q685.73 336.17, 768 373.9Q797.39 331.29, 840 360.69Q899.92 348.61, 912 408.53Q942.59 367.12, 984 397.7Q1036.99 378.69, 1056 431.67Q1081.66 337.33, 1176 362.99Q1206.06 321.05, 1248 351.1Q1340.22 323.32, 1368 415.54Q1379.13 354.67, 1440 365.79Q1468.41 322.21, 1512 350.62z" fill="#25467d"></path><path d="M1512 560L0 560 L0 467.5Q17.66 413.16, 72 430.83Q139.43 378.26, 192 445.69Q235.63 417.31, 264 460.94Q308.54 433.48, 336 478.01Q381.43 451.44, 408 496.86Q414.8 431.66, 480 438.46Q532.8 371.26, 600 424.06Q661.38 413.44, 672 474.81Q728.73 459.54, 744 516.27Q744.81 445.07, 816 445.88Q896.74 406.62, 936 487.35Q960.95 440.31, 1008 465.26Q1087.66 424.92, 1128 504.58Q1180.26 436.83, 1248 489.09Q1292.65 413.74, 1368 458.39Q1389.35 407.74, 1440 429.08Q1481.54 398.62, 1512 440.16z" fill="#356cb1"></path><path d="M1464 560L0 560 L0 506.72Q62.46 449.18, 120 511.64Q180.38 500.02, 192 560.4Q234.15 482.55, 312 524.7Q360.04 452.75, 432 500.79Q497.2 445.99, 552 511.19Q620.22 459.41, 672 527.63Q728.46 512.09, 744 568.55Q774.2 478.75, 864 508.95Q937.71 462.66, 984 536.37Q1061.61 493.98, 1104 571.58Q1116.94 512.52, 1176 525.46Q1196.01 473.47, 1248 493.48Q1290.98 464.46, 1320 507.44Q1368.59 484.02, 1392 532.61Q1439.01 507.62, 1464 554.62z" fill="white"></path></g><defs><mask id="SvgjsMask1001"><rect width="1440" height="560" fill="#ffffff"></rect></mask></defs></svg>