<svg xmlns="http://www.w3.org/2000/svg" version="1.1" xmlns:xlink="http://www.w3.org/1999/xlink" xmlns:svgjs="http://svgjs.com/svgjs" width="1440" height="560" preserveAspectRatio="none" viewBox="0 0 1440 560"><g mask="url(&quot;#SvgjsMask1002&quot;)" fill="none"><path d="M75.7 616.78C256.42 614.05 400.34 400.96 763.67 394.59 1127 388.22 1268.99 151.87 1451.64 148.19" stroke="rgba(237, 90, 19, 1)" stroke-width="2"></path><path d="M136.68 567.9C344.06 540.62 458.98 66.46 804.22 63.49 1149.46 60.52 1300.65 213.75 1471.76 214.69" stroke="rgba(237, 90, 19, 1)" stroke-width="2"></path><path d="M484.55 648.04C652.69 631.7 764.93 275.54 1048.23 275.39 1331.54 275.24 1457.1 526.98 1611.92 532.99" stroke="rgba(237, 90, 19, 1)" stroke-width="2"></path><path d="M335.49 609.91C495.13 567.32 538.54 136.33 786.32 126.64 1034.1 116.95 1011.73 196.64 1237.15 196.64 1462.57 196.64 1573.92 126.85 1687.98 126.64" stroke="rgba(237, 90, 19, 1)" stroke-width="2"></path><path d="M562.82 626.36C671.23 606.81 618.4 348.33 894.21 335.93 1170.01 323.53 1384.6 147.4 1556.98 145.53" stroke="rgba(237, 90, 19, 1)" stroke-width="2"></path></g><defs><mask id="SvgjsMask1002"><rect width="1440" height="560" fill="#ffffff"></rect></mask></defs></svg>